<?xml version="1.0" encoding="UTF-8"?>
<svg version="1.1" xmlns="http://www.w3.org/2000/svg" width="400" height="200">
<path d="M0 0 C132 0 264 0 400 0 C400 66 400 132 400 200 C268 200 136 200 0 200 C0 134 0 68 0 0 Z " fill="#080808" transform="translate(0,0)"/>
<path d="M0 0 C132 0 264 0 400 0 C400 66 400 132 400 200 C268 200 136 200 0 200 C0 134 0 68 0 0 Z M347.875 16.3125 C331.73489915 20.44020892 315.02470845 21.55669805 298.4375 22.5625 C287.19818429 23.01173958 287.19818429 23.01173958 276.875 26.875 C274.12863616 29.98754569 273 31.81685166 273 36 C272.401875 36.226875 271.80375 36.45375 271.1875 36.6875 C267.78751352 38.72749189 266.54188565 41.26663908 265.37109375 45.01171875 C263.64644452 51.92237615 262.35993934 58.74079325 266 65.1875 C268.8942555 69.25576336 272.38149649 72.97796861 277 75 C282.71776587 75.38318012 287.91076125 74.64889908 293.5 73.5 C294.22703125 73.35691406 294.9540625 73.21382812 295.703125 73.06640625 C297.47009071 72.71766302 299.23525309 72.35980277 301 72 C300.21238281 73.01835938 299.42476563 74.03671875 298.61328125 75.0859375 C288.0473459 88.79676932 277.84017492 102.75858321 268 117 C267.69707031 116.39671875 267.39414062 115.7934375 267.08203125 115.171875 C264.59543702 110.42821832 262.53202999 107.06218242 258 104 C257.34 103.34 256.68 102.68 256 102 C256.474375 101.401875 256.94875 100.80375 257.4375 100.1875 C259.63479484 97.11128723 260.56675306 93.97767121 260.55859375 90.18359375 C259.26934841 85.14381653 255.42850587 80.80715612 252 77 C251.34 77 250.68 77 250 77 C250 75.68 250 74.36 250 73 C252.475 72.505 252.475 72.505 255 72 C255.13572155 69.60225255 255.23436868 67.21224755 255.3125 64.8125 C255.3753418 63.80219727 255.3753418 63.80219727 255.43945312 62.77148438 C255.5362466 58.80295203 255.16846044 57.20648198 252.62890625 54.09375 C247.78774339 50.23808389 244.15746954 49.66413802 238 50 C235.68963085 50.42854995 235.68963085 50.42854995 234 51 C234 50.34 234 49.68 234 49 C232.37509046 48.97301811 230.75005367 48.95361243 229.125 48.9375 C228.22007812 48.92589844 227.31515625 48.91429687 226.3828125 48.90234375 C223.9831415 48.83750743 223.9831415 48.83750743 222 50 C220.37906723 50.27513988 218.75286962 50.51942357 217.125 50.75 C204.16987069 52.88597114 191.63645419 56.00848584 179.5 61.0625 C178.7052124 61.39072754 177.9104248 61.71895508 177.09155273 62.05712891 C173.07050164 63.80670322 169.6617563 65.36840164 167 69 C167 70.32 167 71.64 167 73 C166.360625 73.309375 165.72125 73.61875 165.0625 73.9375 C163.06389179 74.8345163 163.06389179 74.8345163 162 76 C161.63272554 77.49205247 161.3050154 78.99398648 161 80.5 C160.11111111 84.88888889 160.11111111 84.88888889 159 86 C158.89977539 85.26362305 158.79955078 84.52724609 158.69628906 83.76855469 C158.23148144 80.42636656 157.74105315 77.08842853 157.25 73.75 C157.09273437 72.59113281 156.93546875 71.43226562 156.7734375 70.23828125 C156.60585937 69.12324219 156.43828125 68.00820312 156.265625 66.859375 C156.11899414 65.83295898 155.97236328 64.80654297 155.82128906 63.74902344 C154.5909224 59.63073312 152.21115788 57.77092127 148.66796875 55.515625 C143.67097658 52.9659786 139.73903618 50.98722891 134 52 C130.02734751 54.73119859 127.51970179 57.79130647 124.8125 61.75 C123.5908073 63.53465243 122.33126027 65.29551666 121 67 C120.34 67 119.68 67 119 67 C117.44921875 65.171875 117.44921875 65.171875 115.6875 62.75 C111.74089377 57.53425691 107.49474128 52.92346503 100.8515625 51.55859375 C96.17896204 51.28957698 96.17896204 51.28957698 92.1875 53.4609375 C90.68034543 55.24691566 89.34784624 57.09259335 88 59 C87.0024783 60.00247218 86.00274347 61.00275102 85 62 C83.9935725 63.66279327 82.99414593 65.32983484 82 67 C81.319375 67.721875 80.63875 68.44375 79.9375 69.1875 C77.19171906 73.17331104 76.69763338 77.27261593 76 82 C75.65388672 80.76636719 75.65388672 80.76636719 75.30078125 79.5078125 C72.14160527 66.99983236 72.14160527 66.99983236 64.5 57.1875 C63.675 56.795625 62.85 56.40375 62 56 C60.31384218 54.35305515 58.64429829 52.68873879 57 51 C50.57899041 47.78949521 40.81914935 50.24040037 34.20703125 51.7734375 C28.90229767 53.8022881 26.74800425 57.20784 24 62 C23.51660156 62.7425 23.03320312 63.485 22.53515625 64.25 C20.92080688 66.78499954 19.45359165 69.36935365 18 72 C17.68385742 72.56041992 17.36771484 73.12083984 17.04199219 73.69824219 C5.09645001 95.10401239 0.31418225 120.92412777 7 145 C10.87720358 155.98784864 16.5312491 164.49914725 27 170 C34.25184209 172.52574842 44.42448894 172.24268667 51.375 169.0625 C58.74638759 164.73795261 64.64940998 158.30277611 69 151 C69.40863281 150.39671875 69.81726563 149.7934375 70.23828125 149.171875 C74.69011024 142.50069764 76.77844183 135.89488524 78 128 C78.04487549 128.54712646 78.08975098 129.09425293 78.13598633 129.65795898 C78.94487501 139.30519053 79.8161385 148.94090337 81.375 158.5 C81.47659424 159.18634521 81.57818848 159.87269043 81.68286133 160.57983398 C82.46302345 165.04996722 83.79899587 167.78735585 87 171 C90.59538569 173.36631475 93.38195491 173.31102445 97.54296875 172.73828125 C102.09743251 171.36976988 105.87141145 168.54759594 109 165 C109.64740922 162.40013989 109.64740922 162.40013989 110 160 C111.9375 158.9375 111.9375 158.9375 114 158 C116.05762015 154.81747464 116.2946694 152.10035894 116.4140625 148.359375 C116.45273438 147.28945312 116.49140625 146.21953125 116.53125 145.1171875 C116.5621875 144.00601563 116.593125 142.89484375 116.625 141.75 C116.66367188 140.62335938 116.70234375 139.49671875 116.7421875 138.3359375 C116.83637336 135.55745452 116.92199586 132.77897666 117 130 C123.67453642 140.92921464 129.83780221 151.19049604 132.7421875 163.75 C134.42037709 168.08619174 136.15955987 169.41564367 140 172 C144.20665751 173.24498503 147.42957597 172.29618171 151.25 170.3125 C153.98024116 168.01661539 155.90528228 165.88023686 158 163 C158.49757812 162.52675293 158.99515625 162.05350586 159.5078125 161.56591797 C163.67286258 157.19085479 164.52516498 153.25261226 164.4375 147.3359375 C164.34816577 144.34464966 164.17982528 141.36202107 164 138.375 C163.92819497 136.80828724 163.85862778 135.24147037 163.79125977 133.67456055 C163.24389578 121.75416347 162.33199009 109.85859141 161 98 C162.69556243 99.69556243 162.34298787 101.92322634 162.52490234 104.25073242 C162.6152475 105.3724736 162.70559265 106.49421478 162.79867554 107.64994812 C162.89347198 108.87276993 162.98826843 110.09559174 163.0859375 111.35546875 C163.29641634 113.92256369 163.50736889 116.48961982 163.71875 119.05664062 C164.04967369 123.12036019 164.3755859 127.18442158 164.69238281 131.24926758 C164.99782371 135.16078653 165.32311731 139.07055198 165.6484375 142.98046875 C165.73918549 144.1931694 165.82993347 145.40587006 165.9234314 146.65531921 C166.60724697 154.70338745 168.05563019 160.16370515 173.5 166.3125 C174.0878125 166.98925781 174.675625 167.66601562 175.28125 168.36328125 C178.29547247 171.2336431 181.62770338 171.34635708 185.66015625 171.2734375 C190.38317361 170.72149891 194.63137057 168.79884741 199 167 C199.65242676 166.73203613 200.30485352 166.46407227 200.97705078 166.18798828 C205.26687728 164.42533667 205.26687728 164.42533667 209.54663086 162.63842773 C219.16438257 158.61124512 228.83471075 155.33673637 238.9375 152.75 C239.95134766 152.481875 240.96519531 152.21375 242.00976562 151.9375 C246.18722011 150.85517207 249.65577593 150 254 150 C253.9175 150.99 253.835 151.98 253.75 153 C253.75944766 157.64824708 255.40822274 161.19815455 258 165 C261.90025791 168.66387865 266.55384318 168.50168638 271.671875 168.7890625 C274 169 274 169 275 170 C277.82183198 170.13161313 280.60668809 170.18710942 283.4296875 170.18359375 C284.31671356 170.18258163 285.20373962 170.18156952 286.11764526 170.18052673 C297.82392203 170.07824916 309.46534126 169.03441727 321.125 168.0625 C325.60625421 167.69252692 330.08800063 167.32958275 334.5703125 166.97265625 C335.66837219 166.88311676 336.76643188 166.79357727 337.89776611 166.70132446 C343.68729539 166.25077806 349.45492581 165.92953737 355.26074219 165.78857422 C356.4414328 165.7583165 357.62212341 165.72805878 358.83859253 165.69688416 C361.09049361 165.64764358 363.34284365 165.61509059 365.59524536 165.60206604 C371.64209499 165.47389915 375.46525323 165.17908967 380 161 C380.33 160.01 380.66 159.02 381 158 C381.598125 157.71125 382.19625 157.4225 382.8125 157.125 C386.30205063 155.33037396 388.30689394 152.42953125 390 148.9375 C391.26501006 146.48654302 393.05678139 144.94321861 395 143 C397.46092436 139.43165968 397.43249037 136.25282197 397 132 C394.07387261 125.71424486 389.9010901 120.75850363 384 117 C381.52963347 116.57309329 381.52963347 116.57309329 378.8359375 116.671875 C377.80871582 116.67622559 376.78149414 116.68057617 375.72314453 116.68505859 C374.61825684 116.70648926 373.51336914 116.72791992 372.375 116.75 C370.65772705 116.76861084 370.65772705 116.76861084 368.90576172 116.78759766 C365.26974186 116.83672635 361.63532012 116.91381367 358 117 C356.23172852 117.03915527 356.23172852 117.03915527 354.42773438 117.07910156 C350.99282967 117.16234299 347.55910057 117.26362377 344.125 117.375 C343.08778809 117.40561523 342.05057617 117.43623047 340.98193359 117.46777344 C333.86282636 117.74479932 326.9985087 118.67738599 320 120 C324.42112028 114.90361491 328.89233584 109.86605038 333.5 104.9375 C334.11584961 104.2770166 334.73169922 103.6165332 335.36621094 102.93603516 C339.48862168 98.55609803 343.70364133 94.28270948 347.984375 90.05859375 C348.50088623 89.54773727 349.01739746 89.0368808 349.54956055 88.51054382 C352.12900457 85.96111608 354.71669765 83.42103762 357.31835938 80.89428711 C358.28021629 79.94802663 359.24181629 79.0015049 360.203125 78.0546875 C361.05551758 77.22437012 361.90791016 76.39405273 362.78613281 75.53857422 C365.13226132 72.84833996 366.45476002 70.1994321 368 67 C368.86625 66.2575 369.7325 65.515 370.625 64.75 C373.28092452 61.67471897 373.30465176 60.88398275 373.5 57 C373.73611111 52.30555556 373.73611111 52.30555556 376.375 49.25 C377.24125 48.5075 378.1075 47.765 379 47 C379.7425 45.515 379.7425 45.515 380.5 44 C382 41 382 41 384.625 38.6875 C387.47313714 35.46460797 387.95996027 33.42996605 388.19140625 29.21484375 C387.87119805 25.50957745 386.53069019 23.6572247 384 21 C381.5653522 19.65317356 379.61294942 18.83777408 377 18 C375.97777344 17.64808594 374.95554687 17.29617187 373.90234375 16.93359375 C364.23795832 13.74911772 357.56363154 13.66894946 347.875 16.3125 Z " fill="#FDFDFD" transform="translate(0,0)"/>
<path d="M0 0 C2 2 2 2 2.49609375 5.26171875 C1.85425812 10.09822821 -0.33320799 11.88637092 -3.9375 14.8125 C-5.1425194 15.85438737 -6.34432621 16.90000137 -7.54296875 17.94921875 C-8.43121338 18.71951416 -8.43121338 18.71951416 -9.33740234 19.50537109 C-13.23387333 23.0081898 -16.57100464 27.05030534 -20 31 C-21.49681661 32.66952622 -22.99685263 34.33617136 -24.5 36 C-25.24765625 36.83144531 -25.9953125 37.66289063 -26.765625 38.51953125 C-28.2106461 40.12370678 -29.6583837 41.72544129 -31.109375 43.32421875 C-37.36102405 50.22613056 -43.45025135 57.26363085 -49.53759766 64.31005859 C-52.34375856 67.55283752 -55.16954338 70.77842574 -58 74 C-54.11446962 71.17415972 -51.14611809 67.9793651 -48.0390625 64.36328125 C-40.69968604 55.85691581 -32.92964144 47.76682862 -25.0625 39.75 C-24.23331055 38.89108154 -23.40412109 38.03216309 -22.54980469 37.1472168 C-21.7612207 36.350979 -20.97263672 35.55474121 -20.16015625 34.734375 C-19.45511963 34.01475586 -18.75008301 33.29513672 -18.02368164 32.55371094 C-16 31 -16 31 -12 31 C-12.53008295 35.07057108 -14.56538058 36.89978999 -17.4453125 39.703125 C-18.35796875 40.60160156 -19.270625 41.50007813 -20.2109375 42.42578125 C-21.1818524 43.36764053 -22.15320932 44.30904436 -23.125 45.25 C-28.80472885 50.79709782 -34.41504835 56.30702275 -39.57373047 62.34667969 C-41.28849637 64.3344227 -43.11194939 66.17705458 -45 68 C-48.16959497 71.1271721 -51.12351462 74.36556496 -54.0234375 77.7421875 C-55.97892415 79.97592521 -57.98532531 82.15670542 -60.00537109 84.33203125 C-65.28153044 90.01653979 -70.25652918 95.85659367 -75 102 C-73.78828125 101.86722656 -72.5765625 101.73445313 -71.328125 101.59765625 C-61.51995799 100.55372991 -51.747139 99.73042058 -41.88964844 99.34204102 C-38.16692419 99.18932383 -34.50498311 98.96261561 -30.80859375 98.48828125 C-24.47307672 97.74304819 -18.12167604 97.77654865 -11.75 97.75 C-9.87054688 97.7190625 -9.87054688 97.7190625 -7.953125 97.6875 C-6.14328125 97.67976563 -6.14328125 97.67976563 -4.296875 97.671875 C-2.66250488 97.65785645 -2.66250488 97.65785645 -0.99511719 97.64355469 C3.78761286 98.21274167 6.25875401 100.11851828 9.3125 103.75 C11.31926339 107.61487763 11.70279752 109.70512629 11 114 C8.6875 116.9375 8.6875 116.9375 6 119 C5.01 119 4.02 119 3 119 C2.67 120.65 2.34 122.3 2 124 C0.97095802 124.05304543 0.97095802 124.05304543 -0.07887268 124.10716248 C-7.2332031 124.47657936 -14.38729267 124.85042075 -21.54125977 125.22680664 C-24.2094822 125.36696224 -26.87778151 125.50529137 -29.54614258 125.64282227 C-33.38639186 125.84095023 -37.22640969 126.04313364 -41.06640625 126.24609375 C-42.25520889 126.3065538 -43.44401154 126.36701385 -44.6688385 126.42930603 C-50.17378039 126.72398174 -55.55740814 127.12788795 -61 128 C-62.37449666 128.12684645 -63.75091206 128.23601295 -65.12890625 128.31640625 C-65.84771973 128.35838135 -66.5665332 128.40035645 -67.30712891 128.44360352 C-68.05140137 128.48283936 -68.79567383 128.5220752 -69.5625 128.5625 C-70.34028809 128.6049585 -71.11807617 128.64741699 -71.91943359 128.69116211 C-78.95081511 129.04826375 -85.95964089 129.10187015 -93 129 C-90.42853943 126.42853943 -88.3949583 126.19882003 -84.875 125.375 C-83.77929688 125.11460937 -82.68359375 124.85421875 -81.5546875 124.5859375 C-80.71164062 124.39257812 -79.86859375 124.19921875 -79 124 C-79.6297876 124.12640869 -80.2595752 124.25281738 -80.90844727 124.38305664 C-83.79093254 124.95468204 -86.67653879 125.5087025 -89.5625 126.0625 C-90.55314453 126.26166016 -91.54378906 126.46082031 -92.56445312 126.66601562 C-98.03330384 127.70164516 -102.56880682 128.40113228 -108 127 C-110.9033447 124.39443424 -111.87407924 122.86345665 -112.4375 119 C-111.95288871 115.67695118 -110.92289889 113.72410676 -109 111 C-109.33 110.67 -109.66 110.34 -110 110 C-110.49267503 104.43865353 -109.60877263 101.54894051 -106.484375 96.97265625 C-106.11743027 96.42651672 -105.75048553 95.8803772 -105.37242126 95.31768799 C-104.18098291 93.55439862 -102.9666627 91.80845799 -101.75 90.0625 C-100.91680925 88.84396848 -100.08453901 87.62480706 -99.25317383 86.4050293 C-87.2733519 68.90853597 -74.20290888 52.37069079 -60.4375 36.25 C-59.94894531 35.67749512 -59.46039063 35.10499023 -58.95703125 34.51513672 C-56.41102427 31.55753714 -53.8022264 28.71651124 -51 26 C-59.91910435 27.47752599 -68.57863883 29.61289323 -77.30273438 31.96484375 C-83.05297092 33.45850724 -88.0580496 34.32734098 -94 34 C-94.33 33.01 -94.66 32.02 -95 31 C-95.61875 30.71125 -96.2375 30.4225 -96.875 30.125 C-99.79612385 28.57852267 -100.64183675 26.98795914 -102 24 C-102.76689232 18.50393839 -100.99860807 13.09736736 -99 8 C-96.54415641 5.54415641 -95.4713127 5.60418426 -92.07421875 5.21875 C-91.06012939 5.10007568 -90.04604004 4.98140137 -89.0012207 4.85913086 C-87.36092896 4.68136108 -87.36092896 4.68136108 -85.6875 4.5 C-84.56625732 4.37181885 -83.44501465 4.2436377 -82.28979492 4.11157227 C-75.13798236 3.30625401 -67.97899576 2.59758072 -60.8125 1.9375 C-50.49192374 0.98680631 -40.32955072 -0.12855314 -30.25 -2.625 C-19.30329091 -5.19991951 -10.60001155 -3.9037677 0 0 Z " fill="#FAFAFA" transform="translate(379,25)"/>
<path d="M0 0 C2.75329021 1.79562405 4.52627461 3.05254922 6 6 C6.04022391 8.3329866 6.04320247 10.66706666 6 13 C0.00764171 15.75740909 -6.05980067 17.59948933 -12.4375 19.1875 C-20.90010615 21.31226511 -29.16302643 23.9230899 -37.4375 26.6875 C-38.61691162 27.08026123 -39.79632324 27.47302246 -41.01147461 27.87768555 C-47.65275125 30.08482821 -47.65275125 30.08482821 -54 33 C-54 35.64 -54 38.28 -54 41 C-53.48695313 40.72027344 -52.97390625 40.44054687 -52.4453125 40.15234375 C-36.96726384 32.04851693 -15.76657049 21.97865008 2 25 C5.125 27.25 5.125 27.25 7 30 C7.598125 30.639375 8.19625 31.27875 8.8125 31.9375 C10.48191653 34.83701292 10.47975332 36.71026297 10 40 C7.65872603 43.47865422 5.25016286 44.36394489 1.31640625 45.23828125 C-0.59955665 45.60693627 -2.51770541 45.96434909 -4.4375 46.3125 C-19.55245612 49.33165889 -34.33934375 53.49351739 -47.91796875 60.93359375 C-50 62 -50 62 -52 62 C-51.7525 62.7734375 -51.7525 62.7734375 -51.5 63.5625 C-50.84951 66.73363876 -50.9379266 69.77218334 -51 73 C-49.93523437 72.44054687 -48.87046875 71.88109375 -47.7734375 71.3046875 C-42.20858604 68.52592768 -36.43375421 66.33571529 -30.625 64.125 C-29.47974854 63.68881348 -28.33449707 63.25262695 -27.15454102 62.80322266 C-20.4390011 60.26297011 -13.7183657 57.73618119 -6.9375 55.375 C-5.91487061 55.0039917 -5.91487061 55.0039917 -4.87158203 54.62548828 C0.051617 52.96407646 4.81355283 52.39466817 10 53 C14.43486023 55.31384012 15.86839005 58.29825794 17.51953125 62.8046875 C18.69660145 68.18284564 18.03309873 71.92457385 15.24609375 76.6484375 C11.63920114 81.98696376 8.54114836 83.59007073 2.3581543 84.99853516 C1.27058838 85.20526855 0.18302246 85.41200195 -0.9375 85.625 C-3.26539222 86.15638284 -5.5908953 86.69832611 -7.9140625 87.25 C-9.09129883 87.52585937 -10.26853516 87.80171875 -11.48144531 88.0859375 C-17.076537 89.53945008 -22.42676351 91.53927371 -27.8125 93.625 C-28.81015381 94.00793213 -29.80780762 94.39086426 -30.83569336 94.78540039 C-34.94288182 96.37694024 -39.03264009 98.00618412 -43.10546875 99.68359375 C-49.00874852 102.08158887 -53.59527431 103.84590717 -60 103 C-60.66 102.34 -61.32 101.68 -62 101 C-62 100.01 -62 99.02 -62 98 C-62.639375 97.71125 -63.27875 97.4225 -63.9375 97.125 C-66 96 -66 96 -67 94 C-67.25731866 92.27386665 -67.46499697 90.54022742 -67.6484375 88.8046875 C-67.76517822 87.7108374 -67.88191895 86.6169873 -68.00219727 85.48999023 C-68.12522217 84.29704346 -68.24824707 83.10409668 -68.375 81.875 C-68.50511475 80.64918213 -68.63522949 79.42336426 -68.76928711 78.16040039 C-69.5026864 71.15456513 -70.17616846 64.14594604 -70.79296875 57.12890625 C-70.85780457 56.40086792 -70.92264038 55.67282959 -70.98944092 54.92272949 C-71.30691765 51.35731353 -71.61599546 47.79157821 -71.90966797 44.22412109 C-72.0232666 42.93199707 -72.13686523 41.63987305 -72.25390625 40.30859375 C-72.35002197 39.16189209 -72.4461377 38.01519043 -72.54516602 36.83374023 C-72.82990101 33.80466778 -72.82990101 33.80466778 -75 31 C-75.49067971 26.66566257 -75.4401174 22.96765094 -72.6640625 19.3984375 C-60.92323779 9.53173504 -38.04670186 7.45258821 -23.3671875 4.72265625 C-19.820853 3.96155198 -16.44800359 2.93446942 -13 1.8125 C-4.77974684 -0.79662447 -4.77974684 -0.79662447 0 0 Z " fill="#FBFBFB" transform="translate(245,55)"/>
<path d="M0 0 C2.50901944 1.57895189 2.94056737 3.37950499 3.8125 6.140625 C5.1325 6.140625 6.4525 6.140625 7.8125 6.140625 C18.63511515 27.04458028 22.18718182 51.72823507 17.0625 74.890625 C16.90563721 75.60404053 16.74877441 76.31745605 16.5871582 77.05249023 C14.88045664 84.00126222 12.16177878 90.37544852 7 95.453125 C6.37480469 96.08863281 5.74960937 96.72414063 5.10546875 97.37890625 C-2.49626427 103.21942003 -11.10485923 103.23491907 -20.1875 102.140625 C-26.18155545 99.95494732 -30.5951365 95.54088506 -33.8359375 90.109375 C-41.98711705 72.20504997 -43.30020099 50.25754026 -37.08789062 31.53076172 C-28.54620969 8.8563972 -28.54620969 8.8563972 -22.1875 3.140625 C-22.5175 4.11 -22.8475 5.079375 -23.1875 6.078125 C-24.23923363 8.76212074 -24.23923363 8.76212074 -24.1875 10.140625 C-23.5275 9.068125 -22.8675 7.995625 -22.1875 6.890625 C-17.0622832 -0.20693647 -8.36051316 -3.28448731 0 0 Z " fill="#F9F9F9" transform="translate(55.1875,55.859375)"/>
<path d="M0 0 C7.04079051 1.10443773 11.01512054 6.18248021 15.1875 11.5 C17.03036791 14.16405092 18.713682 16.9073542 20.375 19.6875 C20.83696777 20.45199463 21.29893555 21.21648926 21.77490234 22.00415039 C35.86641041 45.53673123 35.86641041 45.53673123 38.1875 52.5 C37.64015687 44.34703822 36.34721692 36.49509349 34.6875 28.5 C34.46191406 27.38238281 34.23632812 26.26476562 34.00390625 25.11328125 C32.83032352 19.24531769 32.83032352 19.24531769 31.1875 13.5 C30.81330333 9.45867601 30.79661546 7.19156496 32.8125 3.625 C35.69812036 1.04312915 37.34115467 0.58013219 41.1875 0.5 C43.24658203 1.08862305 43.24658203 1.08862305 45.1875 2.5 C46.34326172 5.35473633 46.34326172 5.35473633 47.2421875 9.01953125 C47.4060495 9.6827388 47.5699115 10.34594635 47.73873901 11.0292511 C49.64983953 19.00950311 51.00597779 27.09053154 52.3125 35.1875 C52.44134583 35.97016235 52.57019165 36.75282471 52.70294189 37.5592041 C54.66698789 49.50077449 56.30756549 61.42365742 57.1875 73.5 C56.52962805 54.15856457 53.26442337 34.8299423 49.40698242 15.89599609 C49.24689697 15.10531738 49.08681152 14.31463867 48.921875 13.5 C48.70869629 12.4790625 48.70869629 12.4790625 48.49121094 11.4375 C48.1875 9.5 48.1875 9.5 48.1875 5.5 C49.5075 5.83 50.8275 6.16 52.1875 6.5 C57.24611405 35.29056901 60.78281791 63.22257054 60.1875 92.5 C59.8575 92.5 59.5275 92.5 59.1875 92.5 C59.105 93.593125 59.0225 94.68625 58.9375 95.8125 C58.1875 99.5 58.1875 99.5 56.5 101.4375 C53.45147123 102.83817538 51.50823048 102.9842732 48.1875 102.5 C44.44141306 99.79449277 43.30927564 96.90081213 42.1875 92.5 C42.08953125 91.42621094 41.9915625 90.35242188 41.890625 89.24609375 C41.09077796 84.98468645 39.40992304 81.97103364 37.125 78.375 C32.47138973 70.76352684 28.07961851 63.02778763 23.77249146 55.21685791 C22.70016717 53.27296287 21.62343576 51.33155234 20.54663086 49.39013672 C19.87447778 48.17174771 19.20266929 46.95316853 18.53125 45.734375 C17.93505859 44.65381836 17.33886719 43.57326172 16.72460938 42.45996094 C15.36664921 39.84498174 14.22072039 37.25652996 13.1875 34.5 C12.5275 34.5 11.8675 34.5 11.1875 34.5 C11.21779297 35.48991943 11.24808594 36.47983887 11.27929688 37.49975586 C11.62224152 48.83221156 11.92650584 60.16535416 12.1875 71.5 C12.20401611 72.20751404 12.22053223 72.91502808 12.23754883 73.64398193 C12.33186811 77.80424424 12.39470277 81.9639133 12.4375 86.125 C12.45876953 87.147146 12.48003906 88.16929199 12.50195312 89.22241211 C12.50646484 90.15190674 12.51097656 91.08140137 12.515625 92.0390625 C12.52964355 93.23329834 12.52964355 93.23329834 12.54394531 94.45166016 C12.09475259 97.03298 11.24944055 97.93064111 9.1875 99.5 C8.5275 99.5 7.8675 99.5 7.1875 99.5 C7.1875 100.16 7.1875 100.82 7.1875 101.5 C3.69881349 103.82579101 2.29031481 103.91865457 -1.8125 103.5 C-3.9609375 102.3203125 -3.9609375 102.3203125 -5.8125 100.5 C-6.38671875 98.06640625 -6.38671875 98.06640625 -6.5 95.0625 C-6.55414063 93.92554688 -6.60828125 92.78859375 -6.6640625 91.6171875 C-6.68629883 90.97620117 -6.70853516 90.33521484 -6.73144531 89.67480469 C-6.82442586 87.18001335 -6.95351053 84.68831679 -7.0859375 82.1953125 C-7.34494583 77.29758216 -7.58292654 72.39919541 -7.8125 67.5 C-7.8125 73.11 -7.8125 78.72 -7.8125 84.5 C-8.1425 84.5 -8.4725 84.5 -8.8125 84.5 C-10.7570482 72.97977745 -10.54458583 61.15441989 -10.8125 49.5 C-10.83266174 48.67064941 -10.85282349 47.84129883 -10.87359619 46.98681641 C-11.00209291 41.57965449 -11.0962968 36.17325587 -11.15353394 30.76486206 C-11.17611107 28.96861094 -11.20724976 27.17244628 -11.24710083 25.37649536 C-11.30104953 22.83524944 -11.32238752 20.29564752 -11.3359375 17.75390625 C-11.35856155 16.99356079 -11.38118561 16.23321533 -11.40449524 15.4498291 C-11.38858283 11.41579135 -11.02155436 9.7457214 -8.36962891 6.62866211 C-7.52577637 5.92620361 -6.68192383 5.22374512 -5.8125 4.5 C-5.1009375 3.3553125 -5.1009375 3.3553125 -4.375 2.1875 C-2.8125 0.5 -2.8125 0.5 0 0 Z " fill="#FBFBFB" transform="translate(98.8125,56.5)"/>
<path d="M0 0 C3 1 3 1 4.0625 2.58203125 C12.24545938 22.05065544 13.27520442 48.08366114 6.484375 67.953125 C4.98143763 71.03810172 3.67673157 72.87300025 1 75 C-2.58076253 75.67561557 -4.83588423 75.73535234 -7.97265625 73.75390625 C-10.98424026 71.274142 -12.74530178 69.76409466 -14 66 C-12.02 66 -10.04 66 -8 66 C-8.2165625 64.90945312 -8.433125 63.81890625 -8.65625 62.6953125 C-12.40207934 42.85308126 -12.68057563 23.72713016 -4 5 C-2.65974748 9.02075755 -3.86098476 11.14060086 -5.2109375 15.0390625 C-7.25725422 22.71781535 -7.15612773 30.60393315 -7.125 38.5 C-7.12886719 39.48097656 -7.13273437 40.46195313 -7.13671875 41.47265625 C-7.12883165 47.39586537 -6.76459736 53.12595045 -6 59 C-6.02094727 58.03400879 -6.04189453 57.06801758 -6.06347656 56.07275391 C-6.45274955 36.41877641 -6.39170723 18.80083254 0 0 Z " fill="#0C0C0C" transform="translate(46,71)"/>
<path d="M0 0 C1.32 0.33 2.64 0.66 4 1 C9.05861405 29.79056901 12.59531791 57.72257054 12 87 C11.67 87 11.34 87 11 87 C10.77213542 85.046875 10.54427083 83.09375 10.31640625 81.140625 C10.05548328 79.03945969 10.05548328 79.03945969 9.47973633 77.21337891 C8.90419306 74.55797165 8.94671445 72.1612338 9.0078125 69.4453125 C9.05271401 63.50574074 8.6100086 57.76447298 7.875 51.875 C7.74955811 50.83964111 7.62411621 49.80428223 7.49487305 48.73754883 C6.05582484 37.48345388 4.03940764 26.32797793 1.98193359 15.17333984 C1.85146133 14.46102707 1.72098907 13.74871429 1.58656311 13.01481628 C1.22898656 11.06871024 0.86624849 9.12355459 0.50317383 7.1784668 C0 4 0 4 0 0 Z " fill="#E7E7E7" transform="translate(147,62)"/>
<path d="M0 0 C5.532175 5.532175 3.21927869 20.06822487 3.25 27.4375 C3.270625 28.67048828 3.29125 29.90347656 3.3125 31.17382812 C3.34499863 38.86381553 3.20695708 46.86881957 0 54 C-2.10839844 55.32592773 -2.10839844 55.32592773 -4 56 C-3.67257813 55.19006592 -3.34515625 54.38013184 -3.0078125 53.5456543 C-1.80281509 49.30627024 -1.78282906 45.6435402 -1.875 41.26953125 C-1.88257324 40.43846359 -1.89014648 39.60739594 -1.89794922 38.75114441 C-1.93037209 35.22145606 -1.9863819 31.6922454 -2.04101562 28.1628418 C-2.31138115 9.03270212 -2.31138115 9.03270212 0 0 Z " fill="#F3F3F3" transform="translate(47,85)"/>
<path d="M0 0 C0 0.99 0 1.98 0 3 C-0.33 3.33 -0.66 3.66 -1 4 C-1.39398723 7.48170405 -1.4362443 10.9998393 -1.5625 14.5 C-1.6049585 15.63735596 -1.64741699 16.77471191 -1.69116211 17.9465332 C-2.34726935 38.61853177 -2.0829017 59.32063066 -2 80 C-2.33 80 -2.66 80 -3 80 C-4.9445482 68.47977745 -4.73208583 56.65441989 -5 45 C-5.02016174 44.17064941 -5.04032349 43.34129883 -5.06109619 42.48681641 C-5.18959291 37.07965449 -5.2837968 31.67325587 -5.34103394 26.26486206 C-5.36361107 24.46861094 -5.39474976 22.67244628 -5.43460083 20.87649536 C-5.48854953 18.33524944 -5.50988752 15.79564752 -5.5234375 13.25390625 C-5.54606155 12.49356079 -5.56868561 11.73321533 -5.59199524 10.9498291 C-5.5757028 6.81944638 -5.1659556 5.19761418 -2.46728516 1.98413086 C-1.65308105 1.32936768 -0.83887695 0.67460449 0 0 Z " fill="#BCBCBC" transform="translate(93,61)"/>
<path d="M0 0 C-2.65009185 2.65009185 -4.71933842 2.77249534 -8.37890625 3.55078125 C-9.33848236 3.75929214 -9.33848236 3.75929214 -10.31744385 3.97201538 C-11.68771205 4.26976744 -13.05861862 4.5645939 -14.43008423 4.85678101 C-29.95275813 8.1741347 -45.40810028 11.58243231 -60 18 C-60 17.34 -60 16.68 -60 16 C-41.81694231 7.50804708 -20.38578586 -0.63705581 0 0 Z " fill="#C8C8C8" transform="translate(232,54)"/>
<path d="M0 0 C-2.29106161 2.66415257 -3.98296296 3.49981951 -7.40234375 4.2109375 C-8.28390137 4.40147705 -9.16545898 4.5920166 -10.07373047 4.78833008 C-11.01877441 4.98193115 -11.96381836 5.17553223 -12.9375 5.375 C-14.91839535 5.80140841 -16.89885544 6.22984321 -18.87890625 6.66015625 C-19.88969238 6.87816895 -20.90047852 7.09618164 -21.94189453 7.32080078 C-26.77572268 8.39438452 -31.57528072 9.59672844 -36.375 10.8125 C-37.2424585 11.03147949 -38.10991699 11.25045898 -39.00366211 11.47607422 C-41.00297002 11.98196495 -43.00157324 12.4906396 -45 13 C-45.33 12.01 -45.66 11.02 -46 10 C-35.97586988 6.883833 -25.88182023 4.13094067 -15.6875 1.625 C-14.59638916 1.35026855 -13.50527832 1.07553711 -12.38110352 0.79248047 C-10.83700806 0.41953857 -10.83700806 0.41953857 -9.26171875 0.0390625 C-8.34350342 -0.18571777 -7.42528809 -0.41049805 -6.47924805 -0.64208984 C-3.9552203 -1.0064645 -2.39430227 -0.80941059 0 0 Z " fill="#151515" transform="translate(228,57)"/>
<path d="M0 0 C1.34025252 4.02075755 0.13901524 6.14060086 -1.2109375 10.0390625 C-3.47918703 18.55061271 -3.12292695 27.31918555 -3.0625 36.0625 C-3.05798828 37.30966797 -3.05347656 38.55683594 -3.04882812 39.84179688 C-3.03713163 42.89458221 -3.02074086 45.94726498 -3 49 C-3.99 49 -4.98 49 -6 49 C-9.21646329 32.58047369 -7.01571238 15.13542012 0 0 Z " fill="#212121" transform="translate(42,76)"/>
<path d="M0 0 C-4.08621781 4.28079961 -8.73577945 6.30780591 -14.0625 8.625 C-14.79533203 8.94984375 -15.52816406 9.2746875 -16.28320312 9.609375 C-21.75251116 12 -21.75251116 12 -24 12 C-23.49339786 8.25114417 -22.9088807 6.42963342 -20 4 C-18.14648438 3.18457031 -18.14648438 3.18457031 -16.09375 2.578125 C-15.34996094 2.35769531 -14.60617188 2.13726562 -13.83984375 1.91015625 C-13.06769531 1.69230469 -12.29554688 1.47445312 -11.5 1.25 C-10.72785156 1.01667969 -9.95570313 0.78335938 -9.16015625 0.54296875 C-3.38530554 -1.12843518 -3.38530554 -1.12843518 0 0 Z " fill="#EAEAEA" transform="translate(221,103)"/>
<path d="M0 0 C2.57031522 2.21553567 3.4068395 3.6057417 3.765625 6.97265625 C3.85150879 7.77807861 3.93739258 8.58350098 4.02587891 9.41333008 C4.09983887 10.28755615 4.17379883 11.16178223 4.25 12.0625 C4.3329834 12.96830811 4.4159668 13.87411621 4.50146484 14.80737305 C5.41345842 26.53964619 4.70551231 38.27260064 4 50 C3.67 50 3.34 50 3 50 C2.98018066 49.31188232 2.96036133 48.62376465 2.93994141 47.91479492 C2.54452736 34.78639306 1.971515 21.77476091 0.40234375 8.73046875 C0.08310249 5.77051342 -0.08750849 2.96945471 0 0 Z " fill="#B5B5B5" transform="translate(160,96)"/>
<path d="M0 0 C-10.88866667 3.72105696 -21.80974769 7.27731087 -33 10 C-31.83654884 7.31138369 -31.13103531 5.94120886 -29 4 C-24.93383677 2.47290614 -20.77292426 1.78431037 -16.5 1.0625 C-15.35917969 0.84271484 -14.21835937 0.62292969 -13.04296875 0.39648438 C-3.86381185 -1.29157444 -3.86381185 -1.29157444 0 0 Z " fill="#161616" transform="translate(325,46)"/>
<path d="M0 0 C0.33 0 0.66 0 1 0 C1.66 19.47 2.32 38.94 3 59 C-1.14048699 52.78926951 -0.13362557 44.81541837 -0.09765625 37.59765625 C-0.0962413 36.51995468 -0.09482635 35.44225311 -0.09336853 34.33189392 C-0.08779611 30.90873371 -0.07524868 27.48564025 -0.0625 24.0625 C-0.05748144 21.73372491 -0.05291915 19.40494878 -0.04882812 17.07617188 C-0.03783571 11.38409202 -0.02112514 5.69205078 0 0 Z " fill="#393939" transform="translate(90,92)"/>
<path d="M0 0 C0.33 0.66 0.66 1.32 1 2 C-5.6 3.65 -12.2 5.3 -19 7 C-19.33 6.01 -19.66 5.02 -20 4 C-17.23208055 3.13521219 -14.46134374 2.28288326 -11.6875 1.4375 C-10.90181641 1.19064453 -10.11613281 0.94378906 -9.30664062 0.68945312 C-8.54931641 0.46064453 -7.79199219 0.23183594 -7.01171875 -0.00390625 C-5.96697388 -0.32597046 -5.96697388 -0.32597046 -4.90112305 -0.65454102 C-3 -1 -3 -1 0 0 Z " fill="#191919" transform="translate(202,63)"/>
<path d="M0 0 C2.07670092 1.68988817 2.92334628 2.59786013 3.43237305 5.26831055 C3.45855713 6.13238525 3.48474121 6.99645996 3.51171875 7.88671875 C3.54716797 8.82451172 3.58261719 9.76230469 3.61914062 10.72851562 C3.64169922 11.70498047 3.66425781 12.68144531 3.6875 13.6875 C3.73874023 15.16959961 3.73874023 15.16959961 3.79101562 16.68164062 C3.87350538 19.12098053 3.94265068 21.55996063 4 24 C3.01 24 2.02 24 1 24 C-0.06309567 18.82682579 -0.11693938 13.87630664 -0.0625 8.625 C-0.05798828 7.79355469 -0.05347656 6.96210937 -0.04882812 6.10546875 C-0.03713164 4.07028103 -0.01919935 2.03513077 0 0 Z " fill="#3A3A3A" transform="translate(35,101)"/>
<path d="M0 0 C-7.59 2.97 -15.18 5.94 -23 9 C-22.67 7.68 -22.34 6.36 -22 5 C-20.18994141 3.97924805 -20.18994141 3.97924805 -17.8515625 3.26171875 C-17.01109375 2.99939453 -16.170625 2.73707031 -15.3046875 2.46679688 C-13.97824219 2.08104492 -13.97824219 2.08104492 -12.625 1.6875 C-11.31015625 1.27274414 -11.31015625 1.27274414 -9.96875 0.84960938 C-3.4169324 -1.13897747 -3.4169324 -1.13897747 0 0 Z " fill="#303030" transform="translate(221,103)"/>
<path d="M0 0 C-3.58727128 2.08351615 -7.20694042 2.80141379 -11.25 3.625 C-13.14492188 4.01558594 -13.14492188 4.01558594 -15.078125 4.4140625 C-16.04234375 4.60742188 -17.0065625 4.80078125 -18 5 C-16.68 5.66 -15.36 6.32 -14 7 C-16.31 7 -18.62 7 -21 7 C-21 6.01 -21 5.02 -21 4 C-21.66 3.67 -22.32 3.34 -23 3 C-20.29273634 2.4935186 -17.58442876 1.994649 -14.875 1.5 C-13.73417969 1.28537109 -13.73417969 1.28537109 -12.5703125 1.06640625 C-8.31957086 0.29687544 -4.34140803 -0.16644376 0 0 Z " fill="#4E4E4E" transform="translate(306,148)"/>
<path d="M0 0 C-0.66 0 -1.32 0 -2 0 C-1.67 0.99 -1.34 1.98 -1 3 C-6.31329355 5.08989546 -10.28728072 6.6112798 -16 5 C-13.32975467 3.21983645 -10.94969139 2.02836981 -8 0.8125 C-7.13375 0.44769531 -6.2675 0.08289063 -5.375 -0.29296875 C-3 -1 -3 -1 0 0 Z " fill="#878787" transform="translate(205,151)"/>
<path d="M0 0 C-2.43572059 0.83887056 -4.87333217 1.67126529 -7.3125 2.5 C-8.34793945 2.85771484 -8.34793945 2.85771484 -9.40429688 3.22265625 C-12.38931489 4.23208263 -14.82658914 5 -18 5 C-18 4.34 -18 3.68 -18 3 C-18.66 2.67 -19.32 2.34 -20 2 C-17.41842632 1.46867611 -14.83538244 0.94965621 -12.25 0.4375 C-11.52039063 0.28603516 -10.79078125 0.13457031 -10.0390625 -0.02148438 C-6.33442927 -0.74557178 -3.60677678 -1.09817231 0 0 Z " fill="#404040" transform="translate(325,46)"/>
<path d="M0 0 C0.99 0.33 1.98 0.66 3 1 C2.50371094 1.4846875 2.00742187 1.969375 1.49609375 2.46875 C-3.23054696 7.132608 -7.6966545 11.94356903 -12 17 C-12 12.89424733 -9.82046274 11.29941998 -7.125 8.5 C-4.50294049 5.72106513 -2.12030737 3.18046105 0 0 Z " fill="#303030" transform="translate(333,84)"/>
<path d="M0 0 C0.99 0.33 1.98 0.66 3 1 C-0.96 4.96 -4.92 8.92 -9 13 C-9.66 12.67 -10.32 12.34 -11 12 C-7.37 8.04 -3.74 4.08 0 0 Z " fill="#151515" transform="translate(345,71)"/>
<path d="M0 0 C1.48828125 1.01953125 1.48828125 1.01953125 3 3 C3.2172101 5.64996326 3.28351554 8.05076558 3.1875 10.6875 C3.17396484 11.38939453 3.16042969 12.09128906 3.14648438 12.81445312 C3.11120182 14.54329829 3.05739583 16.27174765 3 18 C2.67 18 2.34 18 2 18 C1.66191314 15.93827387 1.32972639 13.8755797 1 11.8125 C0.814375 10.66394531 0.62875 9.51539062 0.4375 8.33203125 C0.06510523 5.49584607 -0.08596021 2.85280436 0 0 Z " fill="#BFBFBF" transform="translate(160,96)"/>
<path d="M0 0 C0.33 0 0.66 0 1 0 C1.33 2.97 1.66 5.94 2 9 C2.33 9 2.66 9 3 9 C3 10.98 3 12.96 3 15 C2.34 15 1.68 15 1 15 C0.67 15.66 0.34 16.32 0 17 C0 11.39 0 5.78 0 0 Z " fill="#5E5E5E" transform="translate(157,138)"/>
<path d="M0 0 C1.66362417 0.34820041 3.32995171 0.68404492 5 1 C5 1.33 5 1.66 5 2 C0.38 2 -4.24 2 -9 2 C-5.96271914 -1.03728086 -4.06215635 -1.35405212 0 0 Z " fill="#DDDDDD" transform="translate(295,152)"/>
<path d="M0 0 C-0.33 0.66 -0.66 1.32 -1 2 C-3.28515625 2.6328125 -3.28515625 2.6328125 -6.0625 3.125 C-6.98160156 3.29257812 -7.90070313 3.46015625 -8.84765625 3.6328125 C-9.91306641 3.81457031 -9.91306641 3.81457031 -11 4 C-9 1 -9 1 -7.1875 0.3125 C-4.76407022 -0.03370425 -2.44491162 -0.06791421 0 0 Z " fill="#E7E7E7" transform="translate(203,60)"/>
<path d="M0 0 C0.33 0.66 0.66 1.32 1 2 C-1.31 2.33 -3.62 2.66 -6 3 C-6.33 2.01 -6.66 1.02 -7 0 C-3.98968256 -0.93423645 -3.13349732 -1.04449911 0 0 Z " fill="#303030" transform="translate(202,63)"/>
<path d="M0 0 C-1.3125 1.5 -1.3125 1.5 -3 3 C-3.99 3 -4.98 3 -6 3 C-6 2.34 -6 1.68 -6 1 C-6.66 0.67 -7.32 0.34 -8 0 C-4.94736336 -0.98120464 -3.05263664 -0.98120464 0 0 Z " fill="#2C2C2C" transform="translate(228,57)"/>
<path d="M0 0 C0.66 0.33 1.32 0.66 2 1 C2 1.66 2 2.32 2 3 C0.02 3.66 -1.96 4.32 -4 5 C-3.6875 3.0625 -3.6875 3.0625 -3 1 C-2.01 0.67 -1.02 0.34 0 0 Z " fill="#D6D6D6" transform="translate(201,110)"/>
<path d="M0 0 C1.5 1.0625 1.5 1.0625 3 3 C3.1875 6.6875 3.1875 6.6875 3 10 C0.70366176 6.55549263 0.45983515 4.06187717 0 0 Z " fill="#6C6C6C" transform="translate(90,141)"/>
<path d="M0 0 C0 0.66 0 1.32 0 2 C-2.64 2.33 -5.28 2.66 -8 3 C-5.53387212 -0.1151089 -3.89156016 -0.31553191 0 0 Z " fill="#080808" transform="translate(222,58)"/>
</svg>
